<svg xmlns="http://www.w3.org/2000/svg" width="30" height="30" viewBox="0 0 30 30">
	<defs>
		<style>.a{fill:#F16822;}</style>
	</defs>
	<path class="a" d="M27.29,0H2.71C1.22,0,0,1.22,0,2.71v24.57C0,28.78,1.22,30,2.71,30h24.57c1.5,0,2.71-1.22,2.71-2.71V2.71
		C30,1.22,28.78,0,27.29,0z M9.28,25.9c0,0.44-0.35,0.79-0.79,0.79H5.13c-0.44,0-0.79-0.35-0.79-0.79V11.81
		c0-0.44,0.35-0.79,0.79-0.79h3.36c0.44,0,0.79,0.35,0.79,0.79V25.9z M6.81,9.69c-1.76,0-3.19-1.43-3.19-3.19s1.43-3.19,3.19-3.19
		s3.19,1.43,3.19,3.19S8.58,9.69,6.81,9.69z M26.85,25.97c0,0.4-0.33,0.73-0.73,0.73h-3.61c-0.4,0-0.73-0.33-0.73-0.73v-6.61
		c0-0.99,0.29-4.32-2.58-4.32c-2.22,0-2.67,2.28-2.76,3.31v7.62c0,0.4-0.33,0.73-0.73,0.73h-3.49c-0.4,0-0.73-0.33-0.73-0.73V11.75
		c0-0.4,0.33-0.73,0.73-0.73h3.49c0.4,0,0.73,0.33,0.73,0.73v1.23c0.82-1.24,2.05-2.19,4.66-2.19c5.78,0,5.74,5.4,5.74,8.36
		L26.85,25.97L26.85,25.97z"/>
</svg>
